<svg width="210" height="59" viewBox="0 0 210 59" fill="none" xmlns="http://www.w3.org/2000/svg">
<g filter="url(#filter0_d_134_1121)">
<path d="M20.54 50.52C15.548 50.52 11.6307 49.116 8.788 46.308C5.98 43.5 4.576 39.444 4.576 34.14V13.6H11.336V33.88C11.336 37.624 12.1333 40.3453 13.728 42.044C15.3573 43.7427 17.6453 44.592 20.592 44.592C23.5387 44.592 25.8093 43.7427 27.404 42.044C28.9987 40.3453 29.796 37.624 29.796 33.88V13.6H36.452V34.14C36.452 39.444 35.0307 43.5 32.188 46.308C29.38 49.116 25.4973 50.52 20.54 50.52ZM51.0672 30.344H69.2153V36.064H51.0672V30.344ZM51.6392 50H44.8792V13.6H71.4513V19.268H51.6392V50ZM88.2326 50.52C85.39 50.52 82.6686 50.1213 80.0686 49.324C77.4686 48.492 75.406 47.4347 73.8806 46.152L76.2206 40.9C77.6766 42.044 79.4793 42.9973 81.6286 43.76C83.778 44.5227 85.9793 44.904 88.2326 44.904C90.1393 44.904 91.682 44.696 92.8606 44.28C94.0393 43.864 94.906 43.3093 95.4606 42.616C96.0153 41.888 96.2926 41.0733 96.2926 40.172C96.2926 39.0627 95.894 38.1787 95.0966 37.52C94.2993 36.8267 93.2593 36.2893 91.9766 35.908C90.7286 35.492 89.3246 35.1107 87.7646 34.764C86.2393 34.4173 84.6966 34.0187 83.1366 33.568C81.6113 33.0827 80.2073 32.476 78.9246 31.748C77.6766 30.9853 76.654 29.98 75.8566 28.732C75.0593 27.484 74.6606 25.8893 74.6606 23.948C74.6606 21.972 75.1806 20.1693 76.2206 18.54C77.2953 16.876 78.9073 15.5587 81.0566 14.588C83.2406 13.5827 85.9966 13.08 89.3246 13.08C91.5086 13.08 93.6753 13.3573 95.8246 13.912C97.974 14.4667 99.846 15.264 101.441 16.304L99.3086 21.556C97.6793 20.5853 95.998 19.8747 94.2646 19.424C92.5313 18.9387 90.8673 18.696 89.2726 18.696C87.4006 18.696 85.8753 18.9213 84.6966 19.372C83.5526 19.8227 82.7033 20.412 82.1486 21.14C81.6286 21.868 81.3686 22.7 81.3686 23.636C81.3686 24.7453 81.75 25.6467 82.5126 26.34C83.31 26.9987 84.3326 27.5187 85.5806 27.9C86.8633 28.2813 88.2846 28.6627 89.8446 29.044C91.4046 29.3907 92.9473 29.7893 94.4726 30.24C96.0326 30.6907 97.4366 31.28 98.6846 32.008C99.9673 32.736 100.99 33.724 101.753 34.972C102.55 36.22 102.949 37.7973 102.949 39.704C102.949 41.6453 102.411 43.448 101.337 45.112C100.297 46.7413 98.6846 48.0587 96.5006 49.064C94.3166 50.0347 91.5606 50.52 88.2326 50.52Z" fill="#333843"/>
<path d="M107.888 50V13.6H122.864C126.088 13.6 128.844 14.12 131.132 15.16C133.455 16.2 135.24 17.6907 136.488 19.632C137.736 21.5733 138.36 23.8787 138.36 26.548C138.36 29.2173 137.736 31.5227 136.488 33.464C135.24 35.4053 133.455 36.896 131.132 37.936C128.844 38.976 126.088 39.496 122.864 39.496H111.632L114.648 36.324V50H107.888ZM114.648 37.052L111.632 33.776H122.552C125.533 33.776 127.769 33.152 129.26 31.904C130.785 30.6213 131.548 28.836 131.548 26.548C131.548 24.2253 130.785 22.44 129.26 21.192C127.769 19.944 125.533 19.32 122.552 19.32H111.632L114.648 15.992V37.052ZM156.397 50.364C153.312 50.364 150.608 49.7573 148.285 48.544C145.997 47.296 144.212 45.5973 142.929 43.448C141.681 41.2987 141.057 38.8547 141.057 36.116C141.057 33.3427 141.664 30.8987 142.877 28.784C144.125 26.6347 145.824 24.9533 147.973 23.74C150.157 22.5267 152.636 21.92 155.409 21.92C158.113 21.92 160.522 22.5093 162.637 23.688C164.752 24.8667 166.416 26.5307 167.629 28.68C168.842 30.8293 169.449 33.36 169.449 36.272C169.449 36.5493 169.432 36.8613 169.397 37.208C169.397 37.5547 169.38 37.884 169.345 38.196H146.205V33.88H165.913L163.365 35.232C163.4 33.6373 163.07 32.2333 162.377 31.02C161.684 29.8067 160.73 28.8533 159.517 28.16C158.338 27.4667 156.969 27.12 155.409 27.12C153.814 27.12 152.41 27.4667 151.197 28.16C150.018 28.8533 149.082 29.824 148.389 31.072C147.73 32.2853 147.401 33.724 147.401 35.388V36.428C147.401 38.092 147.782 39.5653 148.545 40.848C149.308 42.1307 150.382 43.1187 151.769 43.812C153.156 44.5053 154.75 44.852 156.553 44.852C158.113 44.852 159.517 44.6093 160.765 44.124C162.013 43.6387 163.122 42.876 164.093 41.836L167.577 45.84C166.329 47.296 164.752 48.4227 162.845 49.22C160.973 49.9827 158.824 50.364 156.397 50.364ZM185.105 50.364C182.054 50.364 179.697 49.584 178.033 48.024C176.369 46.4293 175.537 44.0893 175.537 41.004V16.096H182.037V40.848C182.037 42.1653 182.366 43.188 183.025 43.916C183.718 44.644 184.671 45.008 185.885 45.008C187.341 45.008 188.554 44.6267 189.525 43.864L191.345 48.492C190.582 49.116 189.646 49.584 188.537 49.896C187.427 50.208 186.283 50.364 185.105 50.364ZM170.961 27.64V22.44H189.473V27.64H170.961Z" fill="white"/>
</g>
<defs>
<filter id="filter0_d_134_1121" x="2.57599" y="13.0801" width="194.769" height="45.4399" filterUnits="userSpaceOnUse" color-interpolation-filters="sRGB">
<feFlood flood-opacity="0" result="BackgroundImageFix"/>
<feColorMatrix in="SourceAlpha" type="matrix" values="0 0 0 0 0 0 0 0 0 0 0 0 0 0 0 0 0 0 127 0" result="hardAlpha"/>
<feOffset dx="2" dy="4"/>
<feGaussianBlur stdDeviation="2"/>
<feComposite in2="hardAlpha" operator="out"/>
<feColorMatrix type="matrix" values="0 0 0 0 0 0 0 0 0 0 0 0 0 0 0 0 0 0 0.3 0"/>
<feBlend mode="normal" in2="BackgroundImageFix" result="effect1_dropShadow_134_1121"/>
<feBlend mode="normal" in="SourceGraphic" in2="effect1_dropShadow_134_1121" result="shape"/>
</filter>
</defs>
</svg>
